<svg width="36" height="36" viewBox="0 0 36 36" fill="none" xmlns="http://www.w3.org/2000/svg">
  <!-- Brown background with rounded corners -->
  <rect width="36" height="36" rx="6" fill="#5D3A2E"/>
  <!-- Circle border -->
  <circle cx="18" cy="18" r="12" stroke="#F5F0E8" stroke-width="1.2" fill="none"/>
  <!-- Stylized cursive "EB" path -->
  <path d="M11 22.5C11 22.5 12.5 24 14.5 24C17 24 18 22 18 20C18 18 16.5 16.5 15 16.5C13.5 16.5 12.5 17.5 12.5 18.5C12.5 19.5 13 20 14 20C15 20 15.5 19.5 15.5 19C15.5 18.5 15 18 14.5 18" stroke="#F5F0E8" stroke-width="1.3" stroke-linecap="round" fill="none"/>
  <path d="M18 13C18 13 19 12 20.5 12C22.5 12 24 13.5 24 15.5C24 17 23 18 21.5 18C20 18 19 17 19 15.5C19 14 20 13 21 13" stroke="#F5F0E8" stroke-width="1.3" stroke-linecap="round" fill="none"/>
  <path d="M19 18C19 18 19.5 19 19.5 20.5C19.5 22.5 21 24 23 24C24 24 25 23.5 25 22.5" stroke="#F5F0E8" stroke-width="1.3" stroke-linecap="round" fill="none"/>
</svg>
